<svg width="155.142" height="28.09" viewBox="0 0 155.142 28.09" xmlns="http://www.w3.org/2000/svg"><g clip-path="url(#clip0_1_2)" id="svgGroup" stroke-linecap="round" fill-rule="evenodd" font-size="9pt" stroke="#000" stroke-width="0.25mm" fill="#000" style="stroke:#000;stroke-width:0.25mm;fill:#000"><path d="M 127.981 5.96 L 127.981 0.664 L 111.845 0.664 L 111.845 27.426 L 127.981 27.426 L 127.981 22.08 L 117.224 22.08 L 117.224 16.552 L 126.454 16.552 L 126.454 11.189 L 117.224 11.189 L 117.224 5.96 L 127.981 5.96 Z M 14.145 7.62 L 18.112 4.848 C 16.9 1.61 13.879 0.1 10.227 0.1 A 10.225 10.225 0 0 0 5.317 1.286 A 7.24 7.24 0 0 0 1.395 7.786 A 6.637 6.637 0 0 0 1.817 10.198 C 2.801 12.752 5.344 14.017 7.703 15.19 A 259.122 259.122 0 0 1 8.644 15.659 C 11.178 16.932 13.713 18.346 13.713 20.088 A 1.943 1.943 0 0 1 12.859 21.646 C 12.12 22.206 10.945 22.545 9.496 22.545 A 7.053 7.053 0 0 1 7.326 22.232 C 6.173 21.861 5.231 21.153 4.485 20.072 A 7.205 7.205 0 0 1 4.3 19.789 L 0 22.811 C 1.793 26.131 5.03 27.957 9.413 27.957 A 12.934 12.934 0 0 0 13.782 27.25 C 15.681 26.568 17.17 25.414 18.088 23.885 A 7.502 7.502 0 0 0 19.125 19.972 C 19.125 16.011 16.544 13.771 12.401 11.744 A 39.18 39.18 0 0 0 11.903 11.505 C 8.832 10.061 6.807 9.513 6.807 7.919 A 2.202 2.202 0 0 1 7.677 6.232 C 8.307 5.712 9.235 5.379 10.31 5.379 A 5.125 5.125 0 0 1 10.59 5.387 C 11.994 5.464 13.397 6.126 14.145 7.62 Z M 149.381 0.664 L 142.508 16.203 L 135.651 0.664 L 129.957 0.664 L 142.425 28.09 L 142.624 28.09 L 155.142 0.664 L 149.381 0.664 Z M 73.661 5.96 L 73.661 0.598 L 57.524 0.598 L 57.524 27.459 L 62.903 27.459 L 62.903 16.718 L 72.134 16.718 L 72.134 11.355 L 62.903 11.355 L 62.903 5.96 L 73.661 5.96 Z M 38.997 27.426 L 44.824 27.426 L 32.024 0 L 31.858 0 L 19.075 27.426 L 24.886 27.426 L 26.596 23.69 L 37.304 23.69 L 38.997 27.426 Z M 94.43 0.664 L 86.644 0.681 L 86.644 27.426 L 94.43 27.426 C 103.079 27.426 108.358 22.379 108.358 14.078 C 108.358 5.741 103.096 0.664 94.472 0.664 A 22.102 22.102 0 0 0 94.43 0.664 Z M 47.497 27.426 L 52.876 27.426 L 52.876 0.664 L 47.497 0.664 L 47.497 27.426 Z M 94.463 22.063 L 92.006 22.063 L 92.006 5.993 L 94.413 5.993 A 10.742 10.742 0 0 1 98.076 6.583 C 101.156 7.698 102.93 10.34 102.93 14.062 A 8.978 8.978 0 0 1 102.195 17.775 C 101.296 19.767 99.603 21.137 97.281 21.731 A 11.375 11.375 0 0 1 94.463 22.063 Z M 28.688 19.108 L 31.958 11.953 L 35.212 19.108 L 28.688 19.108 Z" vector-effect="non-scaling-stroke"/>
</g></svg>